<svg width="1080" height="1080" viewBox="0 0 1080 1080" fill="none" xmlns="http://www.w3.org/2000/svg">
<rect x="436.622" y="344.084" width="194.183" height="194.183" rx="31.2851" fill="white"/>
<rect x="221.537" y="668.667" width="625.701" height="86.3036" rx="43.1518" fill="white"/>
<rect x="430.554" y="129" width="194.183" height="86.3036" rx="43.1518" fill="white"/>
<rect x="318.629" y="236.879" width="194.183" height="86.3036" rx="43.1518" fill="white"/>
<rect x="534.388" y="236.879" width="194.183" height="86.3036" rx="43.1518" fill="white"/>
<rect x="550.531" y="560.704" width="257.578" height="85.8595" rx="42.9297" fill="white"/>
<rect x="260.856" y="560.704" width="268.01" height="85.8595" rx="42.9297" fill="white"/>
<rect x="653.056" y="344.759" width="155.077" height="86.3036" rx="43.1518" fill="white"/>
<rect x="260.644" y="344.759" width="155.077" height="86.3036" rx="43.1518" fill="white"/>
<rect x="221.537" y="452.638" width="194.183" height="86.3036" rx="43.1518" fill="white"/>
<rect x="653.056" y="452.638" width="194.183" height="86.3036" rx="43.1518" fill="white"/>
<path d="M491.071 419.156C495.9 419.156 500.12 420.113 503.731 422.028C507.342 423.942 510.126 426.639 512.084 430.12C514.085 433.556 515.086 437.537 515.086 442.062C515.086 446.543 514.085 450.524 512.084 454.004C510.126 457.484 507.32 460.182 503.666 462.096C500.055 464.01 495.857 464.967 491.071 464.967H473.908V419.156H491.071ZM490.353 455.309C494.573 455.309 497.858 454.156 500.207 451.85C502.557 449.545 503.731 446.282 503.731 442.062C503.731 437.842 502.557 434.557 500.207 432.208C497.858 429.859 494.573 428.684 490.353 428.684H485.067V455.309H490.353ZM532.481 428.097V437.363H547.425V445.977H532.481V456.027H549.383V464.967H521.322V419.156H549.383V428.097H532.481ZM599.633 419.156L583.384 464.967H569.418L553.169 419.156H565.046L576.401 453.743L587.821 419.156H599.633Z" fill="black"/>
<path d="M184.431 881.495H213.63V898.701H162.141V807.195H184.431V881.495ZM267.538 899.614C258.935 899.614 251.027 897.615 243.814 893.618C236.688 889.62 230.996 884.059 226.738 876.933C222.567 869.72 220.481 861.638 220.481 852.688C220.481 843.737 222.567 835.699 226.738 828.573C230.996 821.447 236.688 815.885 243.814 811.888C251.027 807.89 258.935 805.892 267.538 805.892C276.141 805.892 284.006 807.89 291.132 811.888C298.344 815.885 303.993 821.447 308.077 828.573C312.248 835.699 314.334 843.737 314.334 852.688C314.334 861.638 312.248 869.72 308.077 876.933C303.906 884.059 298.257 889.62 291.132 893.618C284.006 897.615 276.141 899.614 267.538 899.614ZM267.538 879.279C274.838 879.279 280.66 876.846 285.005 871.979C289.437 867.113 291.653 860.682 291.653 852.688C291.653 844.606 289.437 838.175 285.005 833.396C280.66 828.529 274.838 826.096 267.538 826.096C260.152 826.096 254.242 828.486 249.81 833.265C245.465 838.045 243.293 844.519 243.293 852.688C243.293 860.769 245.465 867.243 249.81 872.11C254.242 876.889 260.152 879.279 267.538 879.279ZM392.562 807.195V825.053H368.317V898.701H346.027V825.053H321.781V807.195H392.562ZM426.039 825.053V843.563H455.889V860.769H426.039V880.843H459.799V898.701H403.749V807.195H459.799V825.053H426.039ZM556.131 898.701H533.841L496.56 842.26V898.701H474.27V807.195H496.56L533.841 863.898V807.195H556.131V898.701ZM633.032 836.133C631.38 833.092 628.991 830.789 625.862 829.224C622.821 827.573 619.214 826.748 615.043 826.748C607.83 826.748 602.052 829.138 597.707 833.917C593.361 838.61 591.189 844.91 591.189 852.818C591.189 861.247 593.448 867.852 597.967 872.631C602.573 877.324 608.873 879.67 616.868 879.67C622.343 879.67 626.949 878.28 630.685 875.499C634.509 872.718 637.29 868.721 639.028 863.507H610.742V847.082H659.232V867.808C657.581 873.37 654.757 878.54 650.759 883.32C646.849 888.1 641.852 891.967 635.769 894.921C629.686 897.876 622.821 899.353 615.174 899.353C606.136 899.353 598.054 897.398 590.928 893.487C583.889 889.49 578.371 883.972 574.374 876.933C570.463 869.894 568.508 861.856 568.508 852.818C568.508 843.78 570.463 835.742 574.374 828.703C578.371 821.577 583.889 816.059 590.928 812.148C597.967 808.151 606.006 806.152 615.043 806.152C625.993 806.152 635.204 808.803 642.678 814.104C650.238 819.405 655.235 826.748 657.668 836.133H633.032ZM705.861 807.195C715.507 807.195 723.936 809.107 731.149 812.931C738.362 816.754 743.923 822.142 747.834 829.094C751.831 835.959 753.83 843.911 753.83 852.948C753.83 861.899 751.831 869.85 747.834 876.802C743.923 883.755 738.318 889.142 731.019 892.966C723.806 896.79 715.42 898.701 705.861 898.701H671.579V807.195H705.861ZM704.427 879.409C712.857 879.409 719.418 877.107 724.11 872.501C728.803 867.895 731.149 861.378 731.149 852.948C731.149 844.519 728.803 837.958 724.11 833.265C719.418 828.573 712.857 826.226 704.427 826.226H693.869V879.409H704.427ZM788.577 825.053V843.563H818.427V860.769H788.577V880.843H822.338V898.701H766.287V807.195H822.338V825.053H788.577ZM922.71 807.195L890.252 898.701H862.357L829.9 807.195H853.624L876.305 876.281L899.116 807.195H922.71Z" fill="white"/>
</svg>
