<svg width="1080" height="1080" viewBox="0 0 1080 1080" fill="none" xmlns="http://www.w3.org/2000/svg">
<rect x="436.623" y="344.084" width="194.183" height="194.183" rx="31.2851" fill="black"/>
<rect x="221.538" y="668.667" width="625.701" height="86.3036" rx="43.1518" fill="black"/>
<rect x="430.555" y="129" width="194.183" height="86.3036" rx="43.1518" fill="black"/>
<rect x="318.63" y="236.879" width="194.183" height="86.3036" rx="43.1518" fill="black"/>
<rect x="534.389" y="236.879" width="194.183" height="86.3036" rx="43.1518" fill="black"/>
<rect x="550.532" y="560.704" width="257.578" height="85.8595" rx="42.9297" fill="black"/>
<rect x="260.857" y="560.704" width="268.01" height="85.8595" rx="42.9297" fill="black"/>
<rect x="653.057" y="344.759" width="155.077" height="86.3036" rx="43.1518" fill="black"/>
<rect x="260.645" y="344.759" width="155.077" height="86.3036" rx="43.1518" fill="black"/>
<rect x="221.538" y="452.638" width="194.183" height="86.3036" rx="43.1518" fill="black"/>
<rect x="653.057" y="452.638" width="194.183" height="86.3036" rx="43.1518" fill="black"/>
<path d="M491.073 419.156C495.902 419.156 500.122 420.113 503.733 422.028C507.344 423.942 510.128 426.639 512.086 430.12C514.087 433.556 515.088 437.537 515.088 442.062C515.088 446.543 514.087 450.524 512.086 454.004C510.128 457.484 507.322 460.182 503.667 462.096C500.056 464.01 495.858 464.967 491.073 464.967H473.91V419.156H491.073ZM490.355 455.309C494.575 455.309 497.859 454.156 500.209 451.85C502.558 449.545 503.733 446.282 503.733 442.062C503.733 437.842 502.558 434.557 500.209 432.208C497.859 429.859 494.575 428.684 490.355 428.684H485.069V455.309H490.355ZM532.483 428.097V437.363H547.427V445.977H532.483V456.027H549.385V464.967H521.324V419.156H549.385V428.097H532.483ZM599.634 419.156L583.385 464.967H569.42L553.171 419.156H565.048L576.402 453.743L587.823 419.156H599.634Z" fill="white"/>
<path d="M184.432 881.495H213.63V898.701H162.142V807.195H184.432V881.495ZM267.539 899.614C258.935 899.614 251.027 897.615 243.815 893.618C236.689 889.62 230.997 884.059 226.739 876.933C222.568 869.72 220.482 861.638 220.482 852.688C220.482 843.737 222.568 835.699 226.739 828.573C230.997 821.447 236.689 815.885 243.815 811.888C251.027 807.89 258.935 805.892 267.539 805.892C276.142 805.892 284.006 807.89 291.132 811.888C298.345 815.885 303.993 821.447 308.078 828.573C312.249 835.699 314.335 843.737 314.335 852.688C314.335 861.638 312.249 869.72 308.078 876.933C303.906 884.059 298.258 889.62 291.132 893.618C284.006 897.615 276.142 899.614 267.539 899.614ZM267.539 879.279C274.838 879.279 280.661 876.846 285.006 871.979C289.438 867.113 291.653 860.682 291.653 852.688C291.653 844.606 289.438 838.175 285.006 833.396C280.661 828.529 274.838 826.096 267.539 826.096C260.152 826.096 254.243 828.486 249.811 833.265C245.466 838.045 243.293 844.519 243.293 852.688C243.293 860.769 245.466 867.243 249.811 872.11C254.243 876.889 260.152 879.279 267.539 879.279ZM392.562 807.195V825.053H368.317V898.701H346.027V825.053H321.782V807.195H392.562ZM426.039 825.053V843.563H455.889V860.769H426.039V880.843H459.8V898.701H403.749V807.195H459.8V825.053H426.039ZM556.131 898.701H533.841L496.561 842.26V898.701H474.271V807.195H496.561L533.841 863.898V807.195H556.131V898.701ZM633.032 836.133C631.381 833.092 628.991 830.789 625.863 829.224C622.821 827.573 619.215 826.748 615.044 826.748C607.831 826.748 602.052 829.138 597.707 833.917C593.362 838.61 591.189 844.91 591.189 852.818C591.189 861.247 593.449 867.852 597.968 872.631C602.573 877.324 608.874 879.67 616.869 879.67C622.343 879.67 626.949 878.28 630.686 875.499C634.509 872.718 637.29 868.721 639.028 863.507H610.742V847.082H659.233V867.808C657.581 873.37 654.757 878.54 650.76 883.32C646.849 888.1 641.852 891.967 635.769 894.921C629.686 897.876 622.821 899.353 615.174 899.353C606.136 899.353 598.055 897.398 590.929 893.487C583.89 889.49 578.372 883.972 574.374 876.933C570.464 869.894 568.508 861.856 568.508 852.818C568.508 843.78 570.464 835.742 574.374 828.703C578.372 821.577 583.89 816.059 590.929 812.148C597.968 808.151 606.006 806.152 615.044 806.152C625.993 806.152 635.205 808.803 642.678 814.104C650.238 819.405 655.235 826.748 657.668 836.133H633.032ZM705.862 807.195C715.508 807.195 723.937 809.107 731.15 812.931C738.362 816.754 743.924 822.142 747.835 829.094C751.832 835.959 753.831 843.911 753.831 852.948C753.831 861.899 751.832 869.85 747.835 876.802C743.924 883.755 738.319 889.142 731.019 892.966C723.807 896.79 715.421 898.701 705.862 898.701H671.579V807.195H705.862ZM704.428 879.409C712.857 879.409 719.418 877.107 724.111 872.501C728.803 867.895 731.15 861.378 731.15 852.948C731.15 844.519 728.803 837.958 724.111 833.265C719.418 828.573 712.857 826.226 704.428 826.226H693.869V879.409H704.428ZM788.577 825.053V843.563H818.428V860.769H788.577V880.843H822.338V898.701H766.287V807.195H822.338V825.053H788.577ZM922.71 807.195L890.253 898.701H862.358L829.901 807.195H853.624L876.305 876.281L899.117 807.195H922.71Z" fill="black"/>
</svg>
